<?xml version="1.0" encoding="UTF-8"?>
<svg viewBox="2.016996383666992 3.7394323348999023 57.87791442871094 57.87791442871094" xmlns="http://www.w3.org/2000/svg" data-om-id="jsx:/https:/019e25e9-a294-77f7-8138-80c99f25911f.claudeusercontent.com/v1/design/projects/019e25e9-a294-77f7-8138-80c99f25911f/serve/logos.jsx?v=7:4001:85:3" style="display: block; overflow: visible;"><g transform="translate(32 32) scale(0.9) translate(-32 -32)" data-om-id="jsx:/https:/019e25e9-a294-77f7-8138-80c99f25911f.claudeusercontent.com/v1/design/projects/019e25e9-a294-77f7-8138-80c99f25911f/serve/logos.jsx?v=7:4139:86:5"><g transform="translate(28 18) rotate(9)" data-om-id="jsx:/https:/019e25e9-a294-77f7-8138-80c99f25911f.claudeusercontent.com/v1/design/projects/019e25e9-a294-77f7-8138-80c99f25911f/serve/logos.jsx?v=7:4242:88:7"><rect x="0" y="0" width="26" height="40" rx="4" fill="#faf3e0" stroke="#241b14" stroke-width="2.6" data-om-id="jsx:/https:/019e25e9-a294-77f7-8138-80c99f25911f.claudeusercontent.com/v1/design/projects/019e25e9-a294-77f7-8138-80c99f25911f/serve/logos.jsx?v=7:4293:89:9"/><g transform="translate(6 12) scale(0.115)" data-om-id="jsx:/https:/019e25e9-a294-77f7-8138-80c99f25911f.claudeusercontent.com/v1/design/projects/019e25e9-a294-77f7-8138-80c99f25911f/serve/logos.jsx?v=7:4401:90:9"><g data-om-id="jsx:/https:/019e25e9-a294-77f7-8138-80c99f25911f.claudeusercontent.com/v1/design/projects/019e25e9-a294-77f7-8138-80c99f25911f/serve/symbols.jsx:661:16:5"><path d="M60 108 C 22 80, 8 56, 8 34 C 8 19, 19 9, 32 9 C 44 9, 53 16, 60 27 C 67 16, 76 9, 88 9 C 101 9, 112 19, 112 34 C 112 56, 98 80, 60 108 Z" fill="#bd2a26" data-om-id="jsx:/https:/019e25e9-a294-77f7-8138-80c99f25911f.claudeusercontent.com/v1/design/projects/019e25e9-a294-77f7-8138-80c99f25911f/serve/symbols.jsx:1040:25:7"/><path d="M60 27 C 67 16, 76 9, 88 9 C 101 9, 112 19, 112 34 C 112 56, 98 80, 60 108 Z" fill="#7a1714" opacity=".55" data-om-id="jsx:/https:/019e25e9-a294-77f7-8138-80c99f25911f.claudeusercontent.com/v1/design/projects/019e25e9-a294-77f7-8138-80c99f25911f/serve/symbols.jsx:1085:26:7"/><path d="M60 27 C 60 40, 56 60, 50 78" fill="none" stroke="#fff" stroke-width="1.4" opacity=".25" stroke-linecap="round" data-om-id="jsx:/https:/019e25e9-a294-77f7-8138-80c99f25911f.claudeusercontent.com/v1/design/projects/019e25e9-a294-77f7-8138-80c99f25911f/serve/symbols.jsx:1271:28:7"/><path d="M60 108 C 22 80, 8 56, 8 34 C 8 19, 19 9, 32 9 C 44 9, 53 16, 60 27 C 67 16, 76 9, 88 9 C 101 9, 112 19, 112 34 C 112 56, 98 80, 60 108 Z" fill="none" stroke="#241b14" stroke-width="1.8" data-om-id="jsx:/https:/019e25e9-a294-77f7-8138-80c99f25911f.claudeusercontent.com/v1/design/projects/019e25e9-a294-77f7-8138-80c99f25911f/serve/symbols.jsx:1398:29:7"/></g></g></g><g transform="translate(8 8) rotate(-9)" data-om-id="jsx:/https:/019e25e9-a294-77f7-8138-80c99f25911f.claudeusercontent.com/v1/design/projects/019e25e9-a294-77f7-8138-80c99f25911f/serve/logos.jsx?v=7:4565:93:7"><rect x="0" y="0" width="26" height="40" rx="4" fill="#f7efd9" stroke="#241b14" stroke-width="2.6" data-om-id="jsx:/https:/019e25e9-a294-77f7-8138-80c99f25911f.claudeusercontent.com/v1/design/projects/019e25e9-a294-77f7-8138-80c99f25911f/serve/logos.jsx?v=7:4615:94:9"/><g transform="translate(6 12) scale(0.115)" data-om-id="jsx:/https:/019e25e9-a294-77f7-8138-80c99f25911f.claudeusercontent.com/v1/design/projects/019e25e9-a294-77f7-8138-80c99f25911f/serve/logos.jsx?v=7:4723:95:9"><g data-om-id="jsx:/https:/019e25e9-a294-77f7-8138-80c99f25911f.claudeusercontent.com/v1/design/projects/019e25e9-a294-77f7-8138-80c99f25911f/serve/symbols.jsx:5353:114:5"><circle cx="60" cy="56" r="40" fill="#e6b324" data-om-id="jsx:/https:/019e25e9-a294-77f7-8138-80c99f25911f.claudeusercontent.com/v1/design/projects/019e25e9-a294-77f7-8138-80c99f25911f/serve/symbols.jsx:5719:123:7"/><g data-om-id="jsx:/https:/019e25e9-a294-77f7-8138-80c99f25911f.claudeusercontent.com/v1/design/projects/019e25e9-a294-77f7-8138-80c99f25911f/serve/symbols.jsx:5783:124:7"><path d="M60 16 Q 96 30 92 80 Q 80 100 60 100 L 60 16 Z" fill="#b88410" opacity=".55" data-om-id="jsx:/https:/019e25e9-a294-77f7-8138-80c99f25911f.claudeusercontent.com/v1/design/projects/019e25e9-a294-77f7-8138-80c99f25911f/serve/symbols.jsx:5847:125:9"/><path d="M20 54 L 28 50 L 36 58 L 44 50 L 52 58 L 60 50 L 68 58 L 76 50 L 84 58 L 92 50 L 100 54 L 100 64 L 92 60 L 84 68 L 76 60 L 68 68 L 60 60 L 52 68 L 44 60 L 36 68 L 28 60 L 20 64 Z" fill="#bd2a26" data-om-id="jsx:/https:/019e25e9-a294-77f7-8138-80c99f25911f.claudeusercontent.com/v1/design/projects/019e25e9-a294-77f7-8138-80c99f25911f/serve/symbols.jsx:6077:127:9"/><path d="M60 50 L 68 58 L 76 50 L 84 58 L 92 50 L 100 54 L 100 64 L 92 60 L 84 68 L 76 60 L 68 68 L 60 60 Z" fill="#7a1714" opacity=".6" data-om-id="jsx:/https:/019e25e9-a294-77f7-8138-80c99f25911f.claudeusercontent.com/v1/design/projects/019e25e9-a294-77f7-8138-80c99f25911f/serve/symbols.jsx:6298:128:9"/><ellipse cx="46" cy="32" rx="14" ry="6" fill="#fff" opacity=".25" data-om-id="jsx:/https:/019e25e9-a294-77f7-8138-80c99f25911f.claudeusercontent.com/v1/design/projects/019e25e9-a294-77f7-8138-80c99f25911f/serve/symbols.jsx:6456:129:9"/></g><circle cx="60" cy="56" r="40" fill="none" stroke="#241b14" stroke-width="1.8" data-om-id="jsx:/https:/019e25e9-a294-77f7-8138-80c99f25911f.claudeusercontent.com/v1/design/projects/019e25e9-a294-77f7-8138-80c99f25911f/serve/symbols.jsx:6541:131:7"/><path d="M44 92 Q 40 88 38 94 Q 36 102 44 104 Q 40 108 48 110 Q 52 114 60 112 Q 68 114 72 110 Q 80 108 76 104 Q 84 102 82 94 Q 80 88 76 92 Q 72 86 60 88 Q 48 86 44 92 Z" fill="#3f9a36" stroke="#241b14" stroke-width="1.6" data-om-id="jsx:/https:/019e25e9-a294-77f7-8138-80c99f25911f.claudeusercontent.com/v1/design/projects/019e25e9-a294-77f7-8138-80c99f25911f/serve/symbols.jsx:6634:132:7"/><path d="M52 96 Q 56 102 56 108 M 60 96 L 60 110 M 68 96 Q 64 102 64 108" stroke="#1f6a2a" stroke-width="1" fill="none" opacity=".9" data-om-id="jsx:/https:/019e25e9-a294-77f7-8138-80c99f25911f.claudeusercontent.com/v1/design/projects/019e25e9-a294-77f7-8138-80c99f25911f/serve/symbols.jsx:6878:133:7"/><circle cx="60" cy="116" r="3" fill="#bd2a26" stroke="#241b14" stroke-width="1" data-om-id="jsx:/https:/019e25e9-a294-77f7-8138-80c99f25911f.claudeusercontent.com/v1/design/projects/019e25e9-a294-77f7-8138-80c99f25911f/serve/symbols.jsx:7031:134:7"/></g></g></g></g></svg>