<?xml version="1.0" encoding="UTF-8"?>
<svg viewBox="32 0.47585296630859375 365.7605285644531 378.1243591308594" xmlns="http://www.w3.org/2000/svg" data-om-id="jsx:/https:/019e25e9-a294-77f7-8138-80c99f25911f.claudeusercontent.com/v1/design/projects/019e25e9-a294-77f7-8138-80c99f25911f/serve/logos.jsx?v=7:10770:205:3" style="display: block; overflow: visible; height: auto;"><g class="bbroot" data-om-id="jsx:/https:/019e25e9-a294-77f7-8138-80c99f25911f.claudeusercontent.com/v1/design/projects/019e25e9-a294-77f7-8138-80c99f25911f/serve/logos.jsx?v=7:10912:206:5"><g transform="translate(91 4)" data-om-id="jsx:/https:/019e25e9-a294-77f7-8138-80c99f25911f.claudeusercontent.com/v1/design/projects/019e25e9-a294-77f7-8138-80c99f25911f/serve/logos.jsx?v=7:11014:208:7"><g data-om-id="jsx:/https:/019e25e9-a294-77f7-8138-80c99f25911f.claudeusercontent.com/v1/design/projects/019e25e9-a294-77f7-8138-80c99f25911f/serve/logos.jsx?v=7:2892:61:5"><g transform="translate(78 68) rotate(5)" data-om-id="jsx:/https:/019e25e9-a294-77f7-8138-80c99f25911f.claudeusercontent.com/v1/design/projects/019e25e9-a294-77f7-8138-80c99f25911f/serve/logos.jsx?v=7:2444:50:3"><rect x="0" y="0" width="82.8" height="132.48" rx="4.83" fill="#faf3e0" stroke="#241b14" stroke-width="2.5" data-om-id="jsx:/https:/019e25e9-a294-77f7-8138-80c99f25911f.claudeusercontent.com/v1/design/projects/019e25e9-a294-77f7-8138-80c99f25911f/serve/logos.jsx?v=7:2549:52:7"/><rect x="2.2" y="2.2" width="82.8" height="132.48" rx="4.83" fill="#faf3e0" stroke="#241b14" stroke-width="2.5" data-om-id="jsx:/https:/019e25e9-a294-77f7-8138-80c99f25911f.claudeusercontent.com/v1/design/projects/019e25e9-a294-77f7-8138-80c99f25911f/serve/logos.jsx?v=7:2549:52:7"/><rect x="4.4" y="4.4" width="82.8" height="132.48" rx="4.83" fill="#faf3e0" stroke="#241b14" stroke-width="2.5" data-om-id="jsx:/https:/019e25e9-a294-77f7-8138-80c99f25911f.claudeusercontent.com/v1/design/projects/019e25e9-a294-77f7-8138-80c99f25911f/serve/logos.jsx?v=7:2549:52:7"/><rect x="6.6000000000000005" y="6.6000000000000005" width="82.8" height="132.48" rx="4.83" fill="#faf3e0" stroke="#241b14" stroke-width="2.5" data-om-id="jsx:/https:/019e25e9-a294-77f7-8138-80c99f25911f.claudeusercontent.com/v1/design/projects/019e25e9-a294-77f7-8138-80c99f25911f/serve/logos.jsx?v=7:2549:52:7"/></g><g transform="translate(78 68) rotate(5) scale(0.345)" data-om-id="jsx:/https:/019e25e9-a294-77f7-8138-80c99f25911f.claudeusercontent.com/v1/design/projects/019e25e9-a294-77f7-8138-80c99f25911f/serve/logos.jsx?v=7:3012:64:7"><g data-om-id="jsx:/https:/019e25e9-a294-77f7-8138-80c99f25911f.claudeusercontent.com/v1/design/projects/019e25e9-a294-77f7-8138-80c99f25911f/serve/deck.jsx:7771:232:3"><rect x="2" y="2" width="236" height="380" rx="14" ry="14" fill="#faf3e0" stroke="#241b14" stroke-width="2.5" data-om-id="jsx:/https:/019e25e9-a294-77f7-8138-80c99f25911f.claudeusercontent.com/v1/design/projects/019e25e9-a294-77f7-8138-80c99f25911f/serve/deck.jsx:7779:233:5"/><rect x="10" y="10" width="220" height="364" rx="8" ry="8" fill="none" stroke="#b6a583" stroke-width=".8" data-om-id="jsx:/https:/019e25e9-a294-77f7-8138-80c99f25911f.claudeusercontent.com/v1/design/projects/019e25e9-a294-77f7-8138-80c99f25911f/serve/deck.jsx:7956:236:5"/><g data-om-id="jsx:/https:/019e25e9-a294-77f7-8138-80c99f25911f.claudeusercontent.com/v1/design/projects/019e25e9-a294-77f7-8138-80c99f25911f/serve/deck.jsx:7144:213:5"><g data-om-id="jsx:/https:/019e25e9-a294-77f7-8138-80c99f25911f.claudeusercontent.com/v1/design/projects/019e25e9-a294-77f7-8138-80c99f25911f/serve/deck.jsx:1686:59:5"><g transform="translate(40.879999999999995 9.600000000000001)" data-om-id="jsx:/https:/019e25e9-a294-77f7-8138-80c99f25911f.claudeusercontent.com/v1/design/projects/019e25e9-a294-77f7-8138-80c99f25911f/serve/deck.jsx:1245:46:3"><svg width="72" height="72" viewBox="0 0 120 120" overflow="visible" data-om-id="jsx:/https:/019e25e9-a294-77f7-8138-80c99f25911f.claudeusercontent.com/v1/design/projects/019e25e9-a294-77f7-8138-80c99f25911f/serve/deck.jsx:1310:47:5"><g data-om-id="jsx:/https:/019e25e9-a294-77f7-8138-80c99f25911f.claudeusercontent.com/v1/design/projects/019e25e9-a294-77f7-8138-80c99f25911f/serve/symbols.jsx:661:16:5"><path d="M60 108 C 22 80, 8 56, 8 34 C 8 19, 19 9, 32 9 C 44 9, 53 16, 60 27 C 67 16, 76 9, 88 9 C 101 9, 112 19, 112 34 C 112 56, 98 80, 60 108 Z" fill="#bd2a26" data-om-id="jsx:/https:/019e25e9-a294-77f7-8138-80c99f25911f.claudeusercontent.com/v1/design/projects/019e25e9-a294-77f7-8138-80c99f25911f/serve/symbols.jsx:1040:25:7"/><path d="M60 27 C 67 16, 76 9, 88 9 C 101 9, 112 19, 112 34 C 112 56, 98 80, 60 108 Z" fill="#7a1714" opacity=".55" data-om-id="jsx:/https:/019e25e9-a294-77f7-8138-80c99f25911f.claudeusercontent.com/v1/design/projects/019e25e9-a294-77f7-8138-80c99f25911f/serve/symbols.jsx:1085:26:7"/><path d="M60 27 C 60 40, 56 60, 50 78" fill="none" stroke="#fff" stroke-width="1.4" opacity=".25" stroke-linecap="round" data-om-id="jsx:/https:/019e25e9-a294-77f7-8138-80c99f25911f.claudeusercontent.com/v1/design/projects/019e25e9-a294-77f7-8138-80c99f25911f/serve/symbols.jsx:1271:28:7"/><path d="M60 108 C 22 80, 8 56, 8 34 C 8 19, 19 9, 32 9 C 44 9, 53 16, 60 27 C 67 16, 76 9, 88 9 C 101 9, 112 19, 112 34 C 112 56, 98 80, 60 108 Z" fill="none" stroke="#241b14" stroke-width="1.8" data-om-id="jsx:/https:/019e25e9-a294-77f7-8138-80c99f25911f.claudeusercontent.com/v1/design/projects/019e25e9-a294-77f7-8138-80c99f25911f/serve/symbols.jsx:1398:29:7"/></g></svg></g><g transform="translate(127.12 9.600000000000001)" data-om-id="jsx:/https:/019e25e9-a294-77f7-8138-80c99f25911f.claudeusercontent.com/v1/design/projects/019e25e9-a294-77f7-8138-80c99f25911f/serve/deck.jsx:1245:46:3"><svg width="72" height="72" viewBox="0 0 120 120" overflow="visible" data-om-id="jsx:/https:/019e25e9-a294-77f7-8138-80c99f25911f.claudeusercontent.com/v1/design/projects/019e25e9-a294-77f7-8138-80c99f25911f/serve/deck.jsx:1310:47:5"><g data-om-id="jsx:/https:/019e25e9-a294-77f7-8138-80c99f25911f.claudeusercontent.com/v1/design/projects/019e25e9-a294-77f7-8138-80c99f25911f/serve/symbols.jsx:661:16:5"><path d="M60 108 C 22 80, 8 56, 8 34 C 8 19, 19 9, 32 9 C 44 9, 53 16, 60 27 C 67 16, 76 9, 88 9 C 101 9, 112 19, 112 34 C 112 56, 98 80, 60 108 Z" fill="#bd2a26" data-om-id="jsx:/https:/019e25e9-a294-77f7-8138-80c99f25911f.claudeusercontent.com/v1/design/projects/019e25e9-a294-77f7-8138-80c99f25911f/serve/symbols.jsx:1040:25:7"/><path d="M60 27 C 67 16, 76 9, 88 9 C 101 9, 112 19, 112 34 C 112 56, 98 80, 60 108 Z" fill="#7a1714" opacity=".55" data-om-id="jsx:/https:/019e25e9-a294-77f7-8138-80c99f25911f.claudeusercontent.com/v1/design/projects/019e25e9-a294-77f7-8138-80c99f25911f/serve/symbols.jsx:1085:26:7"/><path d="M60 27 C 60 40, 56 60, 50 78" fill="none" stroke="#fff" stroke-width="1.4" opacity=".25" stroke-linecap="round" data-om-id="jsx:/https:/019e25e9-a294-77f7-8138-80c99f25911f.claudeusercontent.com/v1/design/projects/019e25e9-a294-77f7-8138-80c99f25911f/serve/symbols.jsx:1271:28:7"/><path d="M60 108 C 22 80, 8 56, 8 34 C 8 19, 19 9, 32 9 C 44 9, 53 16, 60 27 C 67 16, 76 9, 88 9 C 101 9, 112 19, 112 34 C 112 56, 98 80, 60 108 Z" fill="none" stroke="#241b14" stroke-width="1.8" data-om-id="jsx:/https:/019e25e9-a294-77f7-8138-80c99f25911f.claudeusercontent.com/v1/design/projects/019e25e9-a294-77f7-8138-80c99f25911f/serve/symbols.jsx:1398:29:7"/></g></svg></g><g transform="translate(40.879999999999995 88)" data-om-id="jsx:/https:/019e25e9-a294-77f7-8138-80c99f25911f.claudeusercontent.com/v1/design/projects/019e25e9-a294-77f7-8138-80c99f25911f/serve/deck.jsx:1245:46:3"><svg width="72" height="72" viewBox="0 0 120 120" overflow="visible" data-om-id="jsx:/https:/019e25e9-a294-77f7-8138-80c99f25911f.claudeusercontent.com/v1/design/projects/019e25e9-a294-77f7-8138-80c99f25911f/serve/deck.jsx:1310:47:5"><g data-om-id="jsx:/https:/019e25e9-a294-77f7-8138-80c99f25911f.claudeusercontent.com/v1/design/projects/019e25e9-a294-77f7-8138-80c99f25911f/serve/symbols.jsx:661:16:5"><path d="M60 108 C 22 80, 8 56, 8 34 C 8 19, 19 9, 32 9 C 44 9, 53 16, 60 27 C 67 16, 76 9, 88 9 C 101 9, 112 19, 112 34 C 112 56, 98 80, 60 108 Z" fill="#bd2a26" data-om-id="jsx:/https:/019e25e9-a294-77f7-8138-80c99f25911f.claudeusercontent.com/v1/design/projects/019e25e9-a294-77f7-8138-80c99f25911f/serve/symbols.jsx:1040:25:7"/><path d="M60 27 C 67 16, 76 9, 88 9 C 101 9, 112 19, 112 34 C 112 56, 98 80, 60 108 Z" fill="#7a1714" opacity=".55" data-om-id="jsx:/https:/019e25e9-a294-77f7-8138-80c99f25911f.claudeusercontent.com/v1/design/projects/019e25e9-a294-77f7-8138-80c99f25911f/serve/symbols.jsx:1085:26:7"/><path d="M60 27 C 60 40, 56 60, 50 78" fill="none" stroke="#fff" stroke-width="1.4" opacity=".25" stroke-linecap="round" data-om-id="jsx:/https:/019e25e9-a294-77f7-8138-80c99f25911f.claudeusercontent.com/v1/design/projects/019e25e9-a294-77f7-8138-80c99f25911f/serve/symbols.jsx:1271:28:7"/><path d="M60 108 C 22 80, 8 56, 8 34 C 8 19, 19 9, 32 9 C 44 9, 53 16, 60 27 C 67 16, 76 9, 88 9 C 101 9, 112 19, 112 34 C 112 56, 98 80, 60 108 Z" fill="none" stroke="#241b14" stroke-width="1.8" data-om-id="jsx:/https:/019e25e9-a294-77f7-8138-80c99f25911f.claudeusercontent.com/v1/design/projects/019e25e9-a294-77f7-8138-80c99f25911f/serve/symbols.jsx:1398:29:7"/></g></svg></g><g transform="translate(127.12 88)" data-om-id="jsx:/https:/019e25e9-a294-77f7-8138-80c99f25911f.claudeusercontent.com/v1/design/projects/019e25e9-a294-77f7-8138-80c99f25911f/serve/deck.jsx:1245:46:3"><svg width="72" height="72" viewBox="0 0 120 120" overflow="visible" data-om-id="jsx:/https:/019e25e9-a294-77f7-8138-80c99f25911f.claudeusercontent.com/v1/design/projects/019e25e9-a294-77f7-8138-80c99f25911f/serve/deck.jsx:1310:47:5"><g data-om-id="jsx:/https:/019e25e9-a294-77f7-8138-80c99f25911f.claudeusercontent.com/v1/design/projects/019e25e9-a294-77f7-8138-80c99f25911f/serve/symbols.jsx:661:16:5"><path d="M60 108 C 22 80, 8 56, 8 34 C 8 19, 19 9, 32 9 C 44 9, 53 16, 60 27 C 67 16, 76 9, 88 9 C 101 9, 112 19, 112 34 C 112 56, 98 80, 60 108 Z" fill="#bd2a26" data-om-id="jsx:/https:/019e25e9-a294-77f7-8138-80c99f25911f.claudeusercontent.com/v1/design/projects/019e25e9-a294-77f7-8138-80c99f25911f/serve/symbols.jsx:1040:25:7"/><path d="M60 27 C 67 16, 76 9, 88 9 C 101 9, 112 19, 112 34 C 112 56, 98 80, 60 108 Z" fill="#7a1714" opacity=".55" data-om-id="jsx:/https:/019e25e9-a294-77f7-8138-80c99f25911f.claudeusercontent.com/v1/design/projects/019e25e9-a294-77f7-8138-80c99f25911f/serve/symbols.jsx:1085:26:7"/><path d="M60 27 C 60 40, 56 60, 50 78" fill="none" stroke="#fff" stroke-width="1.4" opacity=".25" stroke-linecap="round" data-om-id="jsx:/https:/019e25e9-a294-77f7-8138-80c99f25911f.claudeusercontent.com/v1/design/projects/019e25e9-a294-77f7-8138-80c99f25911f/serve/symbols.jsx:1271:28:7"/><path d="M60 108 C 22 80, 8 56, 8 34 C 8 19, 19 9, 32 9 C 44 9, 53 16, 60 27 C 67 16, 76 9, 88 9 C 101 9, 112 19, 112 34 C 112 56, 98 80, 60 108 Z" fill="none" stroke="#241b14" stroke-width="1.8" data-om-id="jsx:/https:/019e25e9-a294-77f7-8138-80c99f25911f.claudeusercontent.com/v1/design/projects/019e25e9-a294-77f7-8138-80c99f25911f/serve/symbols.jsx:1398:29:7"/></g></svg></g><g transform="translate(40.879999999999995 166.4)" data-om-id="jsx:/https:/019e25e9-a294-77f7-8138-80c99f25911f.claudeusercontent.com/v1/design/projects/019e25e9-a294-77f7-8138-80c99f25911f/serve/deck.jsx:1245:46:3"><svg width="72" height="72" viewBox="0 0 120 120" overflow="visible" data-om-id="jsx:/https:/019e25e9-a294-77f7-8138-80c99f25911f.claudeusercontent.com/v1/design/projects/019e25e9-a294-77f7-8138-80c99f25911f/serve/deck.jsx:1310:47:5"><g data-om-id="jsx:/https:/019e25e9-a294-77f7-8138-80c99f25911f.claudeusercontent.com/v1/design/projects/019e25e9-a294-77f7-8138-80c99f25911f/serve/symbols.jsx:661:16:5"><path d="M60 108 C 22 80, 8 56, 8 34 C 8 19, 19 9, 32 9 C 44 9, 53 16, 60 27 C 67 16, 76 9, 88 9 C 101 9, 112 19, 112 34 C 112 56, 98 80, 60 108 Z" fill="#bd2a26" data-om-id="jsx:/https:/019e25e9-a294-77f7-8138-80c99f25911f.claudeusercontent.com/v1/design/projects/019e25e9-a294-77f7-8138-80c99f25911f/serve/symbols.jsx:1040:25:7"/><path d="M60 27 C 67 16, 76 9, 88 9 C 101 9, 112 19, 112 34 C 112 56, 98 80, 60 108 Z" fill="#7a1714" opacity=".55" data-om-id="jsx:/https:/019e25e9-a294-77f7-8138-80c99f25911f.claudeusercontent.com/v1/design/projects/019e25e9-a294-77f7-8138-80c99f25911f/serve/symbols.jsx:1085:26:7"/><path d="M60 27 C 60 40, 56 60, 50 78" fill="none" stroke="#fff" stroke-width="1.4" opacity=".25" stroke-linecap="round" data-om-id="jsx:/https:/019e25e9-a294-77f7-8138-80c99f25911f.claudeusercontent.com/v1/design/projects/019e25e9-a294-77f7-8138-80c99f25911f/serve/symbols.jsx:1271:28:7"/><path d="M60 108 C 22 80, 8 56, 8 34 C 8 19, 19 9, 32 9 C 44 9, 53 16, 60 27 C 67 16, 76 9, 88 9 C 101 9, 112 19, 112 34 C 112 56, 98 80, 60 108 Z" fill="none" stroke="#241b14" stroke-width="1.8" data-om-id="jsx:/https:/019e25e9-a294-77f7-8138-80c99f25911f.claudeusercontent.com/v1/design/projects/019e25e9-a294-77f7-8138-80c99f25911f/serve/symbols.jsx:1398:29:7"/></g></svg></g><g transform="translate(127.12 166.4)" data-om-id="jsx:/https:/019e25e9-a294-77f7-8138-80c99f25911f.claudeusercontent.com/v1/design/projects/019e25e9-a294-77f7-8138-80c99f25911f/serve/deck.jsx:1245:46:3"><svg width="72" height="72" viewBox="0 0 120 120" overflow="visible" data-om-id="jsx:/https:/019e25e9-a294-77f7-8138-80c99f25911f.claudeusercontent.com/v1/design/projects/019e25e9-a294-77f7-8138-80c99f25911f/serve/deck.jsx:1310:47:5"><g data-om-id="jsx:/https:/019e25e9-a294-77f7-8138-80c99f25911f.claudeusercontent.com/v1/design/projects/019e25e9-a294-77f7-8138-80c99f25911f/serve/symbols.jsx:661:16:5"><path d="M60 108 C 22 80, 8 56, 8 34 C 8 19, 19 9, 32 9 C 44 9, 53 16, 60 27 C 67 16, 76 9, 88 9 C 101 9, 112 19, 112 34 C 112 56, 98 80, 60 108 Z" fill="#bd2a26" data-om-id="jsx:/https:/019e25e9-a294-77f7-8138-80c99f25911f.claudeusercontent.com/v1/design/projects/019e25e9-a294-77f7-8138-80c99f25911f/serve/symbols.jsx:1040:25:7"/><path d="M60 27 C 67 16, 76 9, 88 9 C 101 9, 112 19, 112 34 C 112 56, 98 80, 60 108 Z" fill="#7a1714" opacity=".55" data-om-id="jsx:/https:/019e25e9-a294-77f7-8138-80c99f25911f.claudeusercontent.com/v1/design/projects/019e25e9-a294-77f7-8138-80c99f25911f/serve/symbols.jsx:1085:26:7"/><path d="M60 27 C 60 40, 56 60, 50 78" fill="none" stroke="#fff" stroke-width="1.4" opacity=".25" stroke-linecap="round" data-om-id="jsx:/https:/019e25e9-a294-77f7-8138-80c99f25911f.claudeusercontent.com/v1/design/projects/019e25e9-a294-77f7-8138-80c99f25911f/serve/symbols.jsx:1271:28:7"/><path d="M60 108 C 22 80, 8 56, 8 34 C 8 19, 19 9, 32 9 C 44 9, 53 16, 60 27 C 67 16, 76 9, 88 9 C 101 9, 112 19, 112 34 C 112 56, 98 80, 60 108 Z" fill="none" stroke="#241b14" stroke-width="1.8" data-om-id="jsx:/https:/019e25e9-a294-77f7-8138-80c99f25911f.claudeusercontent.com/v1/design/projects/019e25e9-a294-77f7-8138-80c99f25911f/serve/symbols.jsx:1398:29:7"/></g></svg></g></g><g transform="translate(14 238)" data-om-id="jsx:/https:/019e25e9-a294-77f7-8138-80c99f25911f.claudeusercontent.com/v1/design/projects/019e25e9-a294-77f7-8138-80c99f25911f/serve/deck.jsx:4487:129:5"><g data-om-id="jsx:/https:/019e25e9-a294-77f7-8138-80c99f25911f.claudeusercontent.com/v1/design/projects/019e25e9-a294-77f7-8138-80c99f25911f/serve/scenes.jsx:30223:533:3"><g data-om-id="jsx:/https:/019e25e9-a294-77f7-8138-80c99f25911f.claudeusercontent.com/v1/design/projects/019e25e9-a294-77f7-8138-80c99f25911f/serve/scenes.jsx:1129:18:3"><path d="M0 116 Q 105 108 210 116 L 210 130 L 0 130 Z" fill="#3f9a36" stroke="#241b14" stroke-width="1" data-om-id="jsx:/https:/019e25e9-a294-77f7-8138-80c99f25911f.claudeusercontent.com/v1/design/projects/019e25e9-a294-77f7-8138-80c99f25911f/serve/scenes.jsx:1137:19:5"/><path d="M0 116 Q 105 108 210 116" fill="none" stroke="#1f6a2a" stroke-width=".6" opacity=".5" data-om-id="jsx:/https:/019e25e9-a294-77f7-8138-80c99f25911f.claudeusercontent.com/v1/design/projects/019e25e9-a294-77f7-8138-80c99f25911f/serve/scenes.jsx:1243:20:5"/></g><g transform="translate(176 0)" data-om-id="jsx:/https:/019e25e9-a294-77f7-8138-80c99f25911f.claudeusercontent.com/v1/design/projects/019e25e9-a294-77f7-8138-80c99f25911f/serve/scenes.jsx:30280:536:5"><rect x="-10" y="92" width="20" height="26" fill="#f7efd9" stroke="#241b14" stroke-width="1" data-om-id="jsx:/https:/019e25e9-a294-77f7-8138-80c99f25911f.claudeusercontent.com/v1/design/projects/019e25e9-a294-77f7-8138-80c99f25911f/serve/scenes.jsx:30319:537:7"/><path d="M-12 92 L 0 78 L 12 92 Z" fill="#bd2a26" stroke="#241b14" stroke-width="1" data-om-id="jsx:/https:/019e25e9-a294-77f7-8138-80c99f25911f.claudeusercontent.com/v1/design/projects/019e25e9-a294-77f7-8138-80c99f25911f/serve/scenes.jsx:30419:538:7"/><circle cx="0" cy="76" r="1.5" fill="#e6b324" stroke="#241b14" stroke-width=".4" data-om-id="jsx:/https:/019e25e9-a294-77f7-8138-80c99f25911f.claudeusercontent.com/v1/design/projects/019e25e9-a294-77f7-8138-80c99f25911f/serve/scenes.jsx:30508:539:7"/></g><g transform="translate(82 0)" data-om-id="jsx:/https:/019e25e9-a294-77f7-8138-80c99f25911f.claudeusercontent.com/v1/design/projects/019e25e9-a294-77f7-8138-80c99f25911f/serve/scenes.jsx:30622:542:5"><g data-om-id="jsx:/https:/019e25e9-a294-77f7-8138-80c99f25911f.claudeusercontent.com/v1/design/projects/019e25e9-a294-77f7-8138-80c99f25911f/serve/scenes.jsx:362:8:3"><ellipse cx="0" cy="52.7" rx="9.450000000000001" ry="8.1" fill="#5a3520" data-om-id="jsx:/https:/019e25e9-a294-77f7-8138-80c99f25911f.claudeusercontent.com/v1/design/projects/019e25e9-a294-77f7-8138-80c99f25911f/serve/scenes.jsx:379:9:14"/><circle cx="0" cy="50" r="9" fill="#f0c8a5" stroke="#241b14" stroke-width="1" data-om-id="jsx:/https:/019e25e9-a294-77f7-8138-80c99f25911f.claudeusercontent.com/v1/design/projects/019e25e9-a294-77f7-8138-80c99f25911f/serve/scenes.jsx:465:10:5"/><circle cx="-3.2399999999999998" cy="49.1" r="0.9" fill="#241b14" data-om-id="jsx:/https:/019e25e9-a294-77f7-8138-80c99f25911f.claudeusercontent.com/v1/design/projects/019e25e9-a294-77f7-8138-80c99f25911f/serve/scenes.jsx:545:11:5"/><circle cx="3.2399999999999998" cy="49.1" r="0.9" fill="#241b14" data-om-id="jsx:/https:/019e25e9-a294-77f7-8138-80c99f25911f.claudeusercontent.com/v1/design/projects/019e25e9-a294-77f7-8138-80c99f25911f/serve/scenes.jsx:638:12:5"/><path d="M-2.6999999999999997 54.05 q2.6999999999999997 1.6199999999999999 5.3999999999999995 0" stroke="#241b14" stroke-width="0.7" fill="none" data-om-id="jsx:/https:/019e25e9-a294-77f7-8138-80c99f25911f.claudeusercontent.com/v1/design/projects/019e25e9-a294-77f7-8138-80c99f25911f/serve/scenes.jsx:921:14:5"/></g><path d="M-10 44 Q 0 32 10 44 L 14 60 L 12 78 L -12 78 L -14 60 Z" fill="#fcf7e6" stroke="#241b14" stroke-width="1" data-om-id="jsx:/https:/019e25e9-a294-77f7-8138-80c99f25911f.claudeusercontent.com/v1/design/projects/019e25e9-a294-77f7-8138-80c99f25911f/serve/scenes.jsx:30740:545:7"/><path d="M-9 60 L -14 122 L 14 122 L 9 60 Q 0 66 -9 60 Z" fill="#fcf7e6" stroke="#241b14" stroke-width="1.1" data-om-id="jsx:/https:/019e25e9-a294-77f7-8138-80c99f25911f.claudeusercontent.com/v1/design/projects/019e25e9-a294-77f7-8138-80c99f25911f/serve/scenes.jsx:30883:547:7"/><circle cx="0" cy="82" r="5" fill="#bd2a26" stroke="#241b14" stroke-width=".8" data-om-id="jsx:/https:/019e25e9-a294-77f7-8138-80c99f25911f.claudeusercontent.com/v1/design/projects/019e25e9-a294-77f7-8138-80c99f25911f/serve/scenes.jsx:31020:549:7"/><circle cx="-3" cy="80" r="2" fill="#7a1714" data-om-id="jsx:/https:/019e25e9-a294-77f7-8138-80c99f25911f.claudeusercontent.com/v1/design/projects/019e25e9-a294-77f7-8138-80c99f25911f/serve/scenes.jsx:31104:550:7"/><circle cx="3" cy="80" r="2" fill="#7a1714" data-om-id="jsx:/https:/019e25e9-a294-77f7-8138-80c99f25911f.claudeusercontent.com/v1/design/projects/019e25e9-a294-77f7-8138-80c99f25911f/serve/scenes.jsx:31160:551:7"/><line x1="0" y1="86" x2="0" y2="96" stroke="#3f9a36" stroke-width="1.2" data-om-id="jsx:/https:/019e25e9-a294-77f7-8138-80c99f25911f.claudeusercontent.com/v1/design/projects/019e25e9-a294-77f7-8138-80c99f25911f/serve/scenes.jsx:31215:552:7"/></g><g transform="translate(130 0)" data-om-id="jsx:/https:/019e25e9-a294-77f7-8138-80c99f25911f.claudeusercontent.com/v1/design/projects/019e25e9-a294-77f7-8138-80c99f25911f/serve/scenes.jsx:31324:555:5"><g data-om-id="jsx:/https:/019e25e9-a294-77f7-8138-80c99f25911f.claudeusercontent.com/v1/design/projects/019e25e9-a294-77f7-8138-80c99f25911f/serve/scenes.jsx:362:8:3"><ellipse cx="0" cy="52.7" rx="9.450000000000001" ry="8.1" fill="#5a3520" data-om-id="jsx:/https:/019e25e9-a294-77f7-8138-80c99f25911f.claudeusercontent.com/v1/design/projects/019e25e9-a294-77f7-8138-80c99f25911f/serve/scenes.jsx:379:9:14"/><circle cx="0" cy="50" r="9" fill="#f0c8a5" stroke="#241b14" stroke-width="1" data-om-id="jsx:/https:/019e25e9-a294-77f7-8138-80c99f25911f.claudeusercontent.com/v1/design/projects/019e25e9-a294-77f7-8138-80c99f25911f/serve/scenes.jsx:465:10:5"/><circle cx="-3.2399999999999998" cy="49.1" r="0.9" fill="#241b14" data-om-id="jsx:/https:/019e25e9-a294-77f7-8138-80c99f25911f.claudeusercontent.com/v1/design/projects/019e25e9-a294-77f7-8138-80c99f25911f/serve/scenes.jsx:545:11:5"/><circle cx="3.2399999999999998" cy="49.1" r="0.9" fill="#241b14" data-om-id="jsx:/https:/019e25e9-a294-77f7-8138-80c99f25911f.claudeusercontent.com/v1/design/projects/019e25e9-a294-77f7-8138-80c99f25911f/serve/scenes.jsx:638:12:5"/><path d="M-2.6999999999999997 54.05 q2.6999999999999997 1.6199999999999999 5.3999999999999995 0" stroke="#241b14" stroke-width="0.7" fill="none" data-om-id="jsx:/https:/019e25e9-a294-77f7-8138-80c99f25911f.claudeusercontent.com/v1/design/projects/019e25e9-a294-77f7-8138-80c99f25911f/serve/scenes.jsx:921:14:5"/></g><ellipse cx="0" cy="38" rx="13" ry="3" fill="#241b14" stroke="#241b14" stroke-width=".6" data-om-id="jsx:/https:/019e25e9-a294-77f7-8138-80c99f25911f.claudeusercontent.com/v1/design/projects/019e25e9-a294-77f7-8138-80c99f25911f/serve/scenes.jsx:31420:557:7"/><path d="M-9 60 L -14 122 L 14 122 L 9 60 Q 0 66 -9 60 Z" fill="#241b14" opacity=".88" stroke="#241b14" stroke-width="1.1" data-om-id="jsx:/https:/019e25e9-a294-77f7-8138-80c99f25911f.claudeusercontent.com/v1/design/projects/019e25e9-a294-77f7-8138-80c99f25911f/serve/scenes.jsx:31514:558:7"/><path d="M-2 60 L -4 90 L 4 90 L 2 60 Z" fill="#fcf7e6" stroke="#241b14" stroke-width=".8" data-om-id="jsx:/https:/019e25e9-a294-77f7-8138-80c99f25911f.claudeusercontent.com/v1/design/projects/019e25e9-a294-77f7-8138-80c99f25911f/serve/scenes.jsx:31642:559:7"/><circle cx="0" cy="74" r="1.4" fill="#bd2a26" data-om-id="jsx:/https:/019e25e9-a294-77f7-8138-80c99f25911f.claudeusercontent.com/v1/design/projects/019e25e9-a294-77f7-8138-80c99f25911f/serve/scenes.jsx:31740:560:7"/></g><g transform="translate(106 64) scale(.18)" data-om-id="jsx:/https:/019e25e9-a294-77f7-8138-80c99f25911f.claudeusercontent.com/v1/design/projects/019e25e9-a294-77f7-8138-80c99f25911f/serve/scenes.jsx:31840:563:5"><g data-om-id="jsx:/https:/019e25e9-a294-77f7-8138-80c99f25911f.claudeusercontent.com/v1/design/projects/019e25e9-a294-77f7-8138-80c99f25911f/serve/symbols.jsx:661:16:5"><path d="M60 108 C 22 80, 8 56, 8 34 C 8 19, 19 9, 32 9 C 44 9, 53 16, 60 27 C 67 16, 76 9, 88 9 C 101 9, 112 19, 112 34 C 112 56, 98 80, 60 108 Z" fill="#bd2a26" data-om-id="jsx:/https:/019e25e9-a294-77f7-8138-80c99f25911f.claudeusercontent.com/v1/design/projects/019e25e9-a294-77f7-8138-80c99f25911f/serve/symbols.jsx:1040:25:7"/><path d="M60 27 C 67 16, 76 9, 88 9 C 101 9, 112 19, 112 34 C 112 56, 98 80, 60 108 Z" fill="#7a1714" opacity=".55" data-om-id="jsx:/https:/019e25e9-a294-77f7-8138-80c99f25911f.claudeusercontent.com/v1/design/projects/019e25e9-a294-77f7-8138-80c99f25911f/serve/symbols.jsx:1085:26:7"/><path d="M60 27 C 60 40, 56 60, 50 78" fill="none" stroke="#fff" stroke-width="1.4" opacity=".25" stroke-linecap="round" data-om-id="jsx:/https:/019e25e9-a294-77f7-8138-80c99f25911f.claudeusercontent.com/v1/design/projects/019e25e9-a294-77f7-8138-80c99f25911f/serve/symbols.jsx:1271:28:7"/><path d="M60 108 C 22 80, 8 56, 8 34 C 8 19, 19 9, 32 9 C 44 9, 53 16, 60 27 C 67 16, 76 9, 88 9 C 101 9, 112 19, 112 34 C 112 56, 98 80, 60 108 Z" fill="none" stroke="#241b14" stroke-width="1.8" data-om-id="jsx:/https:/019e25e9-a294-77f7-8138-80c99f25911f.claudeusercontent.com/v1/design/projects/019e25e9-a294-77f7-8138-80c99f25911f/serve/symbols.jsx:1398:29:7"/></g></g></g></g></g></g></g><g transform="translate(30 20) rotate(-10)" data-om-id="jsx:/https:/019e25e9-a294-77f7-8138-80c99f25911f.claudeusercontent.com/v1/design/projects/019e25e9-a294-77f7-8138-80c99f25911f/serve/logos.jsx?v=7:2444:50:3"><rect x="0" y="0" width="82.8" height="132.48" rx="4.83" fill="#faf3e0" stroke="#241b14" stroke-width="2.5" data-om-id="jsx:/https:/019e25e9-a294-77f7-8138-80c99f25911f.claudeusercontent.com/v1/design/projects/019e25e9-a294-77f7-8138-80c99f25911f/serve/logos.jsx?v=7:2549:52:7"/><rect x="2.2" y="2.2" width="82.8" height="132.48" rx="4.83" fill="#faf3e0" stroke="#241b14" stroke-width="2.5" data-om-id="jsx:/https:/019e25e9-a294-77f7-8138-80c99f25911f.claudeusercontent.com/v1/design/projects/019e25e9-a294-77f7-8138-80c99f25911f/serve/logos.jsx?v=7:2549:52:7"/><rect x="4.4" y="4.4" width="82.8" height="132.48" rx="4.83" fill="#faf3e0" stroke="#241b14" stroke-width="2.5" data-om-id="jsx:/https:/019e25e9-a294-77f7-8138-80c99f25911f.claudeusercontent.com/v1/design/projects/019e25e9-a294-77f7-8138-80c99f25911f/serve/logos.jsx?v=7:2549:52:7"/><rect x="6.6000000000000005" y="6.6000000000000005" width="82.8" height="132.48" rx="4.83" fill="#faf3e0" stroke="#241b14" stroke-width="2.5" data-om-id="jsx:/https:/019e25e9-a294-77f7-8138-80c99f25911f.claudeusercontent.com/v1/design/projects/019e25e9-a294-77f7-8138-80c99f25911f/serve/logos.jsx?v=7:2549:52:7"/></g><g transform="translate(30 20) rotate(-10) scale(0.345)" data-om-id="jsx:/https:/019e25e9-a294-77f7-8138-80c99f25911f.claudeusercontent.com/v1/design/projects/019e25e9-a294-77f7-8138-80c99f25911f/serve/logos.jsx?v=7:3320:69:7"><g data-om-id="jsx:/https:/019e25e9-a294-77f7-8138-80c99f25911f.claudeusercontent.com/v1/design/projects/019e25e9-a294-77f7-8138-80c99f25911f/serve/deck.jsx:7771:232:3"><rect x="2" y="2" width="236" height="380" rx="14" ry="14" fill="#faf3e0" stroke="#241b14" stroke-width="2.5" data-om-id="jsx:/https:/019e25e9-a294-77f7-8138-80c99f25911f.claudeusercontent.com/v1/design/projects/019e25e9-a294-77f7-8138-80c99f25911f/serve/deck.jsx:7779:233:5"/><rect x="10" y="10" width="220" height="364" rx="8" ry="8" fill="none" stroke="#b6a583" stroke-width=".8" data-om-id="jsx:/https:/019e25e9-a294-77f7-8138-80c99f25911f.claudeusercontent.com/v1/design/projects/019e25e9-a294-77f7-8138-80c99f25911f/serve/deck.jsx:7956:236:5"/><g data-om-id="jsx:/https:/019e25e9-a294-77f7-8138-80c99f25911f.claudeusercontent.com/v1/design/projects/019e25e9-a294-77f7-8138-80c99f25911f/serve/deck.jsx:6915:200:7"><g data-om-id="jsx:/https:/019e25e9-a294-77f7-8138-80c99f25911f.claudeusercontent.com/v1/design/projects/019e25e9-a294-77f7-8138-80c99f25911f/serve/deck.jsx:2846:93:3"><g transform="translate(14 12) scale(.60)" data-om-id="jsx:/https:/019e25e9-a294-77f7-8138-80c99f25911f.claudeusercontent.com/v1/design/projects/019e25e9-a294-77f7-8138-80c99f25911f/serve/deck.jsx:2891:95:5"><g data-om-id="jsx:/https:/019e25e9-a294-77f7-8138-80c99f25911f.claudeusercontent.com/v1/design/projects/019e25e9-a294-77f7-8138-80c99f25911f/serve/symbols.jsx:5353:114:5"><circle cx="60" cy="56" r="40" fill="#e6b324" data-om-id="jsx:/https:/019e25e9-a294-77f7-8138-80c99f25911f.claudeusercontent.com/v1/design/projects/019e25e9-a294-77f7-8138-80c99f25911f/serve/symbols.jsx:5719:123:7"/><g data-om-id="jsx:/https:/019e25e9-a294-77f7-8138-80c99f25911f.claudeusercontent.com/v1/design/projects/019e25e9-a294-77f7-8138-80c99f25911f/serve/symbols.jsx:5783:124:7"><path d="M60 16 Q 96 30 92 80 Q 80 100 60 100 L 60 16 Z" fill="#b88410" opacity=".55" data-om-id="jsx:/https:/019e25e9-a294-77f7-8138-80c99f25911f.claudeusercontent.com/v1/design/projects/019e25e9-a294-77f7-8138-80c99f25911f/serve/symbols.jsx:5847:125:9"/><path d="M20 54 L 28 50 L 36 58 L 44 50 L 52 58 L 60 50 L 68 58 L 76 50 L 84 58 L 92 50 L 100 54 L 100 64 L 92 60 L 84 68 L 76 60 L 68 68 L 60 60 L 52 68 L 44 60 L 36 68 L 28 60 L 20 64 Z" fill="#bd2a26" data-om-id="jsx:/https:/019e25e9-a294-77f7-8138-80c99f25911f.claudeusercontent.com/v1/design/projects/019e25e9-a294-77f7-8138-80c99f25911f/serve/symbols.jsx:6077:127:9"/><path d="M60 50 L 68 58 L 76 50 L 84 58 L 92 50 L 100 54 L 100 64 L 92 60 L 84 68 L 76 60 L 68 68 L 60 60 Z" fill="#7a1714" opacity=".6" data-om-id="jsx:/https:/019e25e9-a294-77f7-8138-80c99f25911f.claudeusercontent.com/v1/design/projects/019e25e9-a294-77f7-8138-80c99f25911f/serve/symbols.jsx:6298:128:9"/><ellipse cx="46" cy="32" rx="14" ry="6" fill="#fff" opacity=".25" data-om-id="jsx:/https:/019e25e9-a294-77f7-8138-80c99f25911f.claudeusercontent.com/v1/design/projects/019e25e9-a294-77f7-8138-80c99f25911f/serve/symbols.jsx:6456:129:9"/></g><circle cx="60" cy="56" r="40" fill="none" stroke="#241b14" stroke-width="1.8" data-om-id="jsx:/https:/019e25e9-a294-77f7-8138-80c99f25911f.claudeusercontent.com/v1/design/projects/019e25e9-a294-77f7-8138-80c99f25911f/serve/symbols.jsx:6541:131:7"/><path d="M44 92 Q 40 88 38 94 Q 36 102 44 104 Q 40 108 48 110 Q 52 114 60 112 Q 68 114 72 110 Q 80 108 76 104 Q 84 102 82 94 Q 80 88 76 92 Q 72 86 60 88 Q 48 86 44 92 Z" fill="#3f9a36" stroke="#241b14" stroke-width="1.6" data-om-id="jsx:/https:/019e25e9-a294-77f7-8138-80c99f25911f.claudeusercontent.com/v1/design/projects/019e25e9-a294-77f7-8138-80c99f25911f/serve/symbols.jsx:6634:132:7"/><path d="M52 96 Q 56 102 56 108 M 60 96 L 60 110 M 68 96 Q 64 102 64 108" stroke="#1f6a2a" stroke-width="1" fill="none" opacity=".9" data-om-id="jsx:/https:/019e25e9-a294-77f7-8138-80c99f25911f.claudeusercontent.com/v1/design/projects/019e25e9-a294-77f7-8138-80c99f25911f/serve/symbols.jsx:6878:133:7"/><circle cx="60" cy="116" r="3" fill="#bd2a26" stroke="#241b14" stroke-width="1" data-om-id="jsx:/https:/019e25e9-a294-77f7-8138-80c99f25911f.claudeusercontent.com/v1/design/projects/019e25e9-a294-77f7-8138-80c99f25911f/serve/symbols.jsx:7031:134:7"/></g></g><g transform="translate(154 12) scale(.60)" data-om-id="jsx:/https:/019e25e9-a294-77f7-8138-80c99f25911f.claudeusercontent.com/v1/design/projects/019e25e9-a294-77f7-8138-80c99f25911f/serve/deck.jsx:3032:98:5"><g data-om-id="jsx:/https:/019e25e9-a294-77f7-8138-80c99f25911f.claudeusercontent.com/v1/design/projects/019e25e9-a294-77f7-8138-80c99f25911f/serve/symbols.jsx:5353:114:5"><circle cx="60" cy="56" r="40" fill="#e6b324" data-om-id="jsx:/https:/019e25e9-a294-77f7-8138-80c99f25911f.claudeusercontent.com/v1/design/projects/019e25e9-a294-77f7-8138-80c99f25911f/serve/symbols.jsx:5719:123:7"/><g data-om-id="jsx:/https:/019e25e9-a294-77f7-8138-80c99f25911f.claudeusercontent.com/v1/design/projects/019e25e9-a294-77f7-8138-80c99f25911f/serve/symbols.jsx:5783:124:7"><path d="M60 16 Q 96 30 92 80 Q 80 100 60 100 L 60 16 Z" fill="#b88410" opacity=".55" data-om-id="jsx:/https:/019e25e9-a294-77f7-8138-80c99f25911f.claudeusercontent.com/v1/design/projects/019e25e9-a294-77f7-8138-80c99f25911f/serve/symbols.jsx:5847:125:9"/><path d="M20 54 L 28 50 L 36 58 L 44 50 L 52 58 L 60 50 L 68 58 L 76 50 L 84 58 L 92 50 L 100 54 L 100 64 L 92 60 L 84 68 L 76 60 L 68 68 L 60 60 L 52 68 L 44 60 L 36 68 L 28 60 L 20 64 Z" fill="#bd2a26" data-om-id="jsx:/https:/019e25e9-a294-77f7-8138-80c99f25911f.claudeusercontent.com/v1/design/projects/019e25e9-a294-77f7-8138-80c99f25911f/serve/symbols.jsx:6077:127:9"/><path d="M60 50 L 68 58 L 76 50 L 84 58 L 92 50 L 100 54 L 100 64 L 92 60 L 84 68 L 76 60 L 68 68 L 60 60 Z" fill="#7a1714" opacity=".6" data-om-id="jsx:/https:/019e25e9-a294-77f7-8138-80c99f25911f.claudeusercontent.com/v1/design/projects/019e25e9-a294-77f7-8138-80c99f25911f/serve/symbols.jsx:6298:128:9"/><ellipse cx="46" cy="32" rx="14" ry="6" fill="#fff" opacity=".25" data-om-id="jsx:/https:/019e25e9-a294-77f7-8138-80c99f25911f.claudeusercontent.com/v1/design/projects/019e25e9-a294-77f7-8138-80c99f25911f/serve/symbols.jsx:6456:129:9"/></g><circle cx="60" cy="56" r="40" fill="none" stroke="#241b14" stroke-width="1.8" data-om-id="jsx:/https:/019e25e9-a294-77f7-8138-80c99f25911f.claudeusercontent.com/v1/design/projects/019e25e9-a294-77f7-8138-80c99f25911f/serve/symbols.jsx:6541:131:7"/><path d="M44 92 Q 40 88 38 94 Q 36 102 44 104 Q 40 108 48 110 Q 52 114 60 112 Q 68 114 72 110 Q 80 108 76 104 Q 84 102 82 94 Q 80 88 76 92 Q 72 86 60 88 Q 48 86 44 92 Z" fill="#3f9a36" stroke="#241b14" stroke-width="1.6" data-om-id="jsx:/https:/019e25e9-a294-77f7-8138-80c99f25911f.claudeusercontent.com/v1/design/projects/019e25e9-a294-77f7-8138-80c99f25911f/serve/symbols.jsx:6634:132:7"/><path d="M52 96 Q 56 102 56 108 M 60 96 L 60 110 M 68 96 Q 64 102 64 108" stroke="#1f6a2a" stroke-width="1" fill="none" opacity=".9" data-om-id="jsx:/https:/019e25e9-a294-77f7-8138-80c99f25911f.claudeusercontent.com/v1/design/projects/019e25e9-a294-77f7-8138-80c99f25911f/serve/symbols.jsx:6878:133:7"/><circle cx="60" cy="116" r="3" fill="#bd2a26" stroke="#241b14" stroke-width="1" data-om-id="jsx:/https:/019e25e9-a294-77f7-8138-80c99f25911f.claudeusercontent.com/v1/design/projects/019e25e9-a294-77f7-8138-80c99f25911f/serve/symbols.jsx:7031:134:7"/></g></g><path d="M88 42 Q 120 30 152 42" stroke="#1f6a2a" stroke-width="1.5" fill="none" data-om-id="jsx:/https:/019e25e9-a294-77f7-8138-80c99f25911f.claudeusercontent.com/v1/design/projects/019e25e9-a294-77f7-8138-80c99f25911f/serve/deck.jsx:3215:102:5"/><path d="M92 39.36 Q 89 44 92 52 Q 95 44 92 39.36 Z" fill="#3f9a36" stroke="#241b14" stroke-width=".4" data-om-id="jsx:/https:/019e25e9-a294-77f7-8138-80c99f25911f.claudeusercontent.com/v1/design/projects/019e25e9-a294-77f7-8138-80c99f25911f/serve/deck.jsx:3353:104:7"/><path d="M104 37.92 Q 101 44 104 52 Q 107 44 104 37.92 Z" fill="#3f9a36" stroke="#241b14" stroke-width=".4" data-om-id="jsx:/https:/019e25e9-a294-77f7-8138-80c99f25911f.claudeusercontent.com/v1/design/projects/019e25e9-a294-77f7-8138-80c99f25911f/serve/deck.jsx:3353:104:7"/><path d="M116 36.48 Q 113 44 116 52 Q 119 44 116 36.48 Z" fill="#3f9a36" stroke="#241b14" stroke-width=".4" data-om-id="jsx:/https:/019e25e9-a294-77f7-8138-80c99f25911f.claudeusercontent.com/v1/design/projects/019e25e9-a294-77f7-8138-80c99f25911f/serve/deck.jsx:3353:104:7"/><path d="M124 36.48 Q 121 44 124 52 Q 127 44 124 36.48 Z" fill="#3f9a36" stroke="#241b14" stroke-width=".4" data-om-id="jsx:/https:/019e25e9-a294-77f7-8138-80c99f25911f.claudeusercontent.com/v1/design/projects/019e25e9-a294-77f7-8138-80c99f25911f/serve/deck.jsx:3353:104:7"/><path d="M136 37.92 Q 133 44 136 52 Q 139 44 136 37.92 Z" fill="#3f9a36" stroke="#241b14" stroke-width=".4" data-om-id="jsx:/https:/019e25e9-a294-77f7-8138-80c99f25911f.claudeusercontent.com/v1/design/projects/019e25e9-a294-77f7-8138-80c99f25911f/serve/deck.jsx:3353:104:7"/><path d="M148 39.36 Q 145 44 148 52 Q 151 44 148 39.36 Z" fill="#3f9a36" stroke="#241b14" stroke-width=".4" data-om-id="jsx:/https:/019e25e9-a294-77f7-8138-80c99f25911f.claudeusercontent.com/v1/design/projects/019e25e9-a294-77f7-8138-80c99f25911f/serve/deck.jsx:3353:104:7"/><path d="M114 32 L 126 32 L 122 44 L 118 44 Z" fill="#bd2a26" stroke="#241b14" stroke-width=".6" data-om-id="jsx:/https:/019e25e9-a294-77f7-8138-80c99f25911f.claudeusercontent.com/v1/design/projects/019e25e9-a294-77f7-8138-80c99f25911f/serve/deck.jsx:3552:106:5"/><path d="M114 32 Q 112 26 108 26 M 126 32 Q 128 26 132 26" stroke="#bd2a26" stroke-width="1.4" fill="none" data-om-id="jsx:/https:/019e25e9-a294-77f7-8138-80c99f25911f.claudeusercontent.com/v1/design/projects/019e25e9-a294-77f7-8138-80c99f25911f/serve/deck.jsx:3656:107:5"/></g><g transform="translate(10 90)" data-om-id="jsx:/https:/019e25e9-a294-77f7-8138-80c99f25911f.claudeusercontent.com/v1/design/projects/019e25e9-a294-77f7-8138-80c99f25911f/serve/deck.jsx:6985:203:11"><g data-om-id="jsx:/https:/019e25e9-a294-77f7-8138-80c99f25911f.claudeusercontent.com/v1/design/projects/019e25e9-a294-77f7-8138-80c99f25911f/serve/scenes.jsx:55627:1003:3"><path d="M0 234 Q 110 220 220 234 L 220 280 L 0 280 Z" fill="#3f9a36" stroke="#241b14" stroke-width="1" data-om-id="jsx:/https:/019e25e9-a294-77f7-8138-80c99f25911f.claudeusercontent.com/v1/design/projects/019e25e9-a294-77f7-8138-80c99f25911f/serve/scenes.jsx:55653:1005:5"/><ellipse cx="40" cy="232" rx="36" ry="10" fill="#1f6a2a" stroke="#241b14" stroke-width=".5" opacity=".7" data-om-id="jsx:/https:/019e25e9-a294-77f7-8138-80c99f25911f.claudeusercontent.com/v1/design/projects/019e25e9-a294-77f7-8138-80c99f25911f/serve/scenes.jsx:55762:1006:5"/><ellipse cx="186" cy="234" rx="28" ry="8" fill="#1f6a2a" stroke="#241b14" stroke-width=".5" opacity=".7" data-om-id="jsx:/https:/019e25e9-a294-77f7-8138-80c99f25911f.claudeusercontent.com/v1/design/projects/019e25e9-a294-77f7-8138-80c99f25911f/serve/scenes.jsx:55876:1007:5"/><g transform="translate(196 230)" data-om-id="jsx:/https:/019e25e9-a294-77f7-8138-80c99f25911f.claudeusercontent.com/v1/design/projects/019e25e9-a294-77f7-8138-80c99f25911f/serve/scenes.jsx:56021:1009:5"><ellipse cx="0" cy="0" rx="12" ry="3" fill="#5a3520" stroke="#241b14" stroke-width=".8" data-om-id="jsx:/https:/019e25e9-a294-77f7-8138-80c99f25911f.claudeusercontent.com/v1/design/projects/019e25e9-a294-77f7-8138-80c99f25911f/serve/scenes.jsx:56062:1010:7"/><path d="M-12 0 L -10 14 Q 0 18 10 14 L 12 0" fill="#3a2010" stroke="#241b14" stroke-width=".8" data-om-id="jsx:/https:/019e25e9-a294-77f7-8138-80c99f25911f.claudeusercontent.com/v1/design/projects/019e25e9-a294-77f7-8138-80c99f25911f/serve/scenes.jsx:56157:1011:7"/></g><g transform="translate(108 0)" data-om-id="jsx:/https:/019e25e9-a294-77f7-8138-80c99f25911f.claudeusercontent.com/v1/design/projects/019e25e9-a294-77f7-8138-80c99f25911f/serve/scenes.jsx:56308:1014:5"><ellipse cx="0" cy="186" rx="78" ry="34" fill="#5c4a32" stroke="#241b14" stroke-width="1.6" data-om-id="jsx:/https:/019e25e9-a294-77f7-8138-80c99f25911f.claudeusercontent.com/v1/design/projects/019e25e9-a294-77f7-8138-80c99f25911f/serve/scenes.jsx:56368:1016:7"/><path d="M-78 186 Q -56 138 0 132 Q 56 138 78 186 Q 50 178 0 178 Q -50 178 -78 186 Z" fill="#3c2f1a" stroke="#241b14" stroke-width="1.4" data-om-id="jsx:/https:/019e25e9-a294-77f7-8138-80c99f25911f.claudeusercontent.com/v1/design/projects/019e25e9-a294-77f7-8138-80c99f25911f/serve/scenes.jsx:56501:1018:7"/><line x1="-56" y1="162.4" x2="-58" y2="144.4" stroke="#241b14" stroke-width="1.3" data-om-id="jsx:/https:/019e25e9-a294-77f7-8138-80c99f25911f.claudeusercontent.com/v1/design/projects/019e25e9-a294-77f7-8138-80c99f25911f/serve/scenes.jsx:56745:1022:9"/><line x1="-44" y1="157.6" x2="-46" y2="139.6" stroke="#241b14" stroke-width="1.3" data-om-id="jsx:/https:/019e25e9-a294-77f7-8138-80c99f25911f.claudeusercontent.com/v1/design/projects/019e25e9-a294-77f7-8138-80c99f25911f/serve/scenes.jsx:56745:1022:9"/><line x1="-32" y1="152.8" x2="-34" y2="134.8" stroke="#241b14" stroke-width="1.3" data-om-id="jsx:/https:/019e25e9-a294-77f7-8138-80c99f25911f.claudeusercontent.com/v1/design/projects/019e25e9-a294-77f7-8138-80c99f25911f/serve/scenes.jsx:56745:1022:9"/><line x1="-20" y1="148" x2="-22" y2="130" stroke="#241b14" stroke-width="1.3" data-om-id="jsx:/https:/019e25e9-a294-77f7-8138-80c99f25911f.claudeusercontent.com/v1/design/projects/019e25e9-a294-77f7-8138-80c99f25911f/serve/scenes.jsx:56745:1022:9"/><line x1="-8" y1="143.2" x2="-10" y2="125.2" stroke="#241b14" stroke-width="1.3" data-om-id="jsx:/https:/019e25e9-a294-77f7-8138-80c99f25911f.claudeusercontent.com/v1/design/projects/019e25e9-a294-77f7-8138-80c99f25911f/serve/scenes.jsx:56745:1022:9"/><line x1="4" y1="141.6" x2="2" y2="123.6" stroke="#241b14" stroke-width="1.3" data-om-id="jsx:/https:/019e25e9-a294-77f7-8138-80c99f25911f.claudeusercontent.com/v1/design/projects/019e25e9-a294-77f7-8138-80c99f25911f/serve/scenes.jsx:56745:1022:9"/><line x1="16" y1="146.4" x2="14" y2="128.4" stroke="#241b14" stroke-width="1.3" data-om-id="jsx:/https:/019e25e9-a294-77f7-8138-80c99f25911f.claudeusercontent.com/v1/design/projects/019e25e9-a294-77f7-8138-80c99f25911f/serve/scenes.jsx:56745:1022:9"/><line x1="28" y1="151.2" x2="26" y2="133.2" stroke="#241b14" stroke-width="1.3" data-om-id="jsx:/https:/019e25e9-a294-77f7-8138-80c99f25911f.claudeusercontent.com/v1/design/projects/019e25e9-a294-77f7-8138-80c99f25911f/serve/scenes.jsx:56745:1022:9"/><line x1="40" y1="156" x2="38" y2="138" stroke="#241b14" stroke-width="1.3" data-om-id="jsx:/https:/019e25e9-a294-77f7-8138-80c99f25911f.claudeusercontent.com/v1/design/projects/019e25e9-a294-77f7-8138-80c99f25911f/serve/scenes.jsx:56745:1022:9"/><line x1="52" y1="160.8" x2="50" y2="142.8" stroke="#241b14" stroke-width="1.3" data-om-id="jsx:/https:/019e25e9-a294-77f7-8138-80c99f25911f.claudeusercontent.com/v1/design/projects/019e25e9-a294-77f7-8138-80c99f25911f/serve/scenes.jsx:56745:1022:9"/><path d="M58 168 Q 92 168 102 188 Q 104 208 96 220 Q 76 224 58 214 Z" fill="#5c4a32" stroke="#241b14" stroke-width="1.5" data-om-id="jsx:/https:/019e25e9-a294-77f7-8138-80c99f25911f.claudeusercontent.com/v1/design/projects/019e25e9-a294-77f7-8138-80c99f25911f/serve/scenes.jsx:56907:1025:7"/><ellipse cx="104" cy="206" rx="10" ry="6" fill="#3c2f1a" stroke="#241b14" stroke-width="1" data-om-id="jsx:/https:/019e25e9-a294-77f7-8138-80c99f25911f.claudeusercontent.com/v1/design/projects/019e25e9-a294-77f7-8138-80c99f25911f/serve/scenes.jsx:57062:1027:7"/><circle cx="100" cy="204" r="1" fill="#241b14" data-om-id="jsx:/https:/019e25e9-a294-77f7-8138-80c99f25911f.claudeusercontent.com/v1/design/projects/019e25e9-a294-77f7-8138-80c99f25911f/serve/scenes.jsx:57159:1028:7"/><circle cx="108" cy="204" r="1" fill="#241b14" data-om-id="jsx:/https:/019e25e9-a294-77f7-8138-80c99f25911f.claudeusercontent.com/v1/design/projects/019e25e9-a294-77f7-8138-80c99f25911f/serve/scenes.jsx:57213:1029:7"/><circle cx="80" cy="188" r="1.8" fill="#241b14" data-om-id="jsx:/https:/019e25e9-a294-77f7-8138-80c99f25911f.claudeusercontent.com/v1/design/projects/019e25e9-a294-77f7-8138-80c99f25911f/serve/scenes.jsx:57286:1031:7"/><circle cx="80" cy="188" r=".6" fill="#f7efd9" data-om-id="jsx:/https:/019e25e9-a294-77f7-8138-80c99f25911f.claudeusercontent.com/v1/design/projects/019e25e9-a294-77f7-8138-80c99f25911f/serve/scenes.jsx:57341:1032:7"/><path d="M68 168 L 72 154 L 80 164 Z" fill="#241b14" data-om-id="jsx:/https:/019e25e9-a294-77f7-8138-80c99f25911f.claudeusercontent.com/v1/design/projects/019e25e9-a294-77f7-8138-80c99f25911f/serve/scenes.jsx:57417:1034:7"/><path d="M96 210 L 102 220 L 95 222 Z" fill="#f7efd9" stroke="#241b14" stroke-width=".9" data-om-id="jsx:/https:/019e25e9-a294-77f7-8138-80c99f25911f.claudeusercontent.com/v1/design/projects/019e25e9-a294-77f7-8138-80c99f25911f/serve/scenes.jsx:57497:1036:7"/><path d="M112 208 L 108 220 L 114 220 Z" fill="#f7efd9" stroke="#241b14" stroke-width=".9" data-om-id="jsx:/https:/019e25e9-a294-77f7-8138-80c99f25911f.claudeusercontent.com/v1/design/projects/019e25e9-a294-77f7-8138-80c99f25911f/serve/scenes.jsx:57593:1037:7"/><rect x="-58" y="210" width="12" height="28" fill="#3c2f1a" stroke="#241b14" stroke-width="1" data-om-id="jsx:/https:/019e25e9-a294-77f7-8138-80c99f25911f.claudeusercontent.com/v1/design/projects/019e25e9-a294-77f7-8138-80c99f25911f/serve/scenes.jsx:57711:1039:7"/><rect x="-36" y="210" width="12" height="28" fill="#3c2f1a" stroke="#241b14" stroke-width="1" data-om-id="jsx:/https:/019e25e9-a294-77f7-8138-80c99f25911f.claudeusercontent.com/v1/design/projects/019e25e9-a294-77f7-8138-80c99f25911f/serve/scenes.jsx:57811:1040:7"/><rect x="22" y="210" width="12" height="28" fill="#3c2f1a" stroke="#241b14" stroke-width="1" data-om-id="jsx:/https:/019e25e9-a294-77f7-8138-80c99f25911f.claudeusercontent.com/v1/design/projects/019e25e9-a294-77f7-8138-80c99f25911f/serve/scenes.jsx:57911:1041:7"/><rect x="44" y="210" width="12" height="28" fill="#3c2f1a" stroke="#241b14" stroke-width="1" data-om-id="jsx:/https:/019e25e9-a294-77f7-8138-80c99f25911f.claudeusercontent.com/v1/design/projects/019e25e9-a294-77f7-8138-80c99f25911f/serve/scenes.jsx:58010:1042:7"/><rect x="-58" y="234" width="12" height="6" fill="#241b14" data-om-id="jsx:/https:/019e25e9-a294-77f7-8138-80c99f25911f.claudeusercontent.com/v1/design/projects/019e25e9-a294-77f7-8138-80c99f25911f/serve/scenes.jsx:58128:1044:7"/><rect x="-36" y="234" width="12" height="6" fill="#241b14" data-om-id="jsx:/https:/019e25e9-a294-77f7-8138-80c99f25911f.claudeusercontent.com/v1/design/projects/019e25e9-a294-77f7-8138-80c99f25911f/serve/scenes.jsx:58194:1045:7"/><rect x="22" y="234" width="12" height="6" fill="#241b14" data-om-id="jsx:/https:/019e25e9-a294-77f7-8138-80c99f25911f.claudeusercontent.com/v1/design/projects/019e25e9-a294-77f7-8138-80c99f25911f/serve/scenes.jsx:58260:1046:7"/><rect x="44" y="234" width="12" height="6" fill="#241b14" data-om-id="jsx:/https:/019e25e9-a294-77f7-8138-80c99f25911f.claudeusercontent.com/v1/design/projects/019e25e9-a294-77f7-8138-80c99f25911f/serve/scenes.jsx:58325:1047:7"/><path d="M-78 166 Q -94 156 -88 146 Q -82 156 -78 166" fill="#3c2f1a" stroke="#241b14" stroke-width="1" data-om-id="jsx:/https:/019e25e9-a294-77f7-8138-80c99f25911f.claudeusercontent.com/v1/design/projects/019e25e9-a294-77f7-8138-80c99f25911f/serve/scenes.jsx:58416:1049:7"/><path d="M48 170 Q 70 180 84 168" stroke="#5a3520" stroke-width="3" fill="none" data-om-id="jsx:/https:/019e25e9-a294-77f7-8138-80c99f25911f.claudeusercontent.com/v1/design/projects/019e25e9-a294-77f7-8138-80c99f25911f/serve/scenes.jsx:58561:1051:7"/><g transform="translate(66 188)" data-om-id="jsx:/https:/019e25e9-a294-77f7-8138-80c99f25911f.claudeusercontent.com/v1/design/projects/019e25e9-a294-77f7-8138-80c99f25911f/serve/scenes.jsx:58649:1052:7"><path d="M-9 0 Q -9 -12 0 -12 Q 9 -12 9 0 Z" fill="#e6b324" stroke="#241b14" stroke-width="1.2" data-om-id="jsx:/https:/019e25e9-a294-77f7-8138-80c99f25911f.claudeusercontent.com/v1/design/projects/019e25e9-a294-77f7-8138-80c99f25911f/serve/scenes.jsx:58691:1053:9"/><rect x="-10" y="0" width="20" height="4" fill="#b88410" stroke="#241b14" stroke-width=".8" data-om-id="jsx:/https:/019e25e9-a294-77f7-8138-80c99f25911f.claudeusercontent.com/v1/design/projects/019e25e9-a294-77f7-8138-80c99f25911f/serve/scenes.jsx:58797:1054:9"/><circle cx="0" cy="6" r="2" fill="#241b14" data-om-id="jsx:/https:/019e25e9-a294-77f7-8138-80c99f25911f.claudeusercontent.com/v1/design/projects/019e25e9-a294-77f7-8138-80c99f25911f/serve/scenes.jsx:58903:1055:9"/><path d="M-7 -8 L -4 -4 L -1 -8 L 2 -4 L 5 -8 L 7 -6" stroke="#bd2a26" stroke-width="1" fill="none" data-om-id="jsx:/https:/019e25e9-a294-77f7-8138-80c99f25911f.claudeusercontent.com/v1/design/projects/019e25e9-a294-77f7-8138-80c99f25911f/serve/scenes.jsx:58989:1057:9"/></g></g></g></g></g></g></g></g></g><g transform="translate(40 250)" data-om-id="jsx:/https:/019e25e9-a294-77f7-8138-80c99f25911f.claudeusercontent.com/v1/design/projects/019e25e9-a294-77f7-8138-80c99f25911f/serve/logos.jsx?v=7:11112:209:7"><g data-om-id="jsx:/https:/019e25e9-a294-77f7-8138-80c99f25911f.claudeusercontent.com/v1/design/projects/019e25e9-a294-77f7-8138-80c99f25911f/serve/logos.jsx?v=7:9385:179:3"><text x="0" y="84" font-family="'Cormorant Garamond', serif" font-size="104" font-weight="700" letter-spacing="-1" data-om-id="jsx:/https:/019e25e9-a294-77f7-8138-80c99f25911f.claudeusercontent.com/v1/design/projects/019e25e9-a294-77f7-8138-80c99f25911f/serve/logos.jsx?v=7:9393:180:5"><tspan fill="#241b14" data-om-id="jsx:/https:/019e25e9-a294-77f7-8138-80c99f25911f.claudeusercontent.com/v1/design/projects/019e25e9-a294-77f7-8138-80c99f25911f/serve/logos.jsx?v=7:9511:181:7">Heb </tspan><tspan fill="#bd2a26" font-style="italic" data-om-id="jsx:/https:/019e25e9-a294-77f7-8138-80c99f25911f.claudeusercontent.com/v1/design/projects/019e25e9-a294-77f7-8138-80c99f25911f/serve/logos.jsx?v=7:9543:181:39">ab!</tspan></text><text x="4" y="116" font-family="'Karla', sans-serif" font-size="20" fill="#241b14" letter-spacing="4" opacity=".8" data-om-id="jsx:/https:/019e25e9-a294-77f7-8138-80c99f25911f.claudeusercontent.com/v1/design/projects/019e25e9-a294-77f7-8138-80c99f25911f/serve/logos.jsx?v=7:9611:183:5">JASSEN wie in VORARLBERG</text></g></g></g></svg>